<svg width="179" height="60" viewBox="0 0 179 60" fill="none" xmlns="http://www.w3.org/2000/svg">
<path d="M61.6985 50.0023L61.7156 15.0023L68.2156 15.0055L68.2015 44.0055L84.3515 44.0134L84.3485 50.0134L61.6985 50.0023ZM99.2498 50.5206C96.6165 50.5194 94.2668 49.9349 92.2007 48.7672C90.1346 47.5662 88.5021 45.9321 87.3031 43.8648C86.1041 41.7975 85.5052 39.4473 85.5065 36.8139C85.5078 34.1806 86.109 31.8309 87.31 29.7648C88.511 27.6987 90.1451 26.0829 92.2123 24.9172C94.2796 23.7182 96.6299 23.1194 99.2632 23.1206C101.863 23.1219 104.196 23.723 106.262 24.9241C108.328 26.0917 109.944 27.7092 111.11 29.7764C112.309 31.8437 112.908 34.194 112.907 36.8273C112.905 39.4606 112.304 41.8103 111.103 43.8764C109.935 45.9425 108.318 47.5751 106.251 48.7741C104.183 49.9397 101.85 50.5219 99.2498 50.5206ZM99.2525 45.0706C100.686 45.0713 101.953 44.7053 103.053 43.9725C104.187 43.2397 105.071 42.2568 105.704 41.0238C106.372 39.7908 106.689 38.3909 106.657 36.8243C106.691 35.2243 106.375 33.8074 105.709 32.5738C105.076 31.3401 104.193 30.373 103.06 29.6725C101.96 28.9386 100.694 28.5713 99.2606 28.5706C97.8272 28.5699 96.527 28.936 95.36 29.6687C94.2263 30.3682 93.3425 31.3511 92.7086 32.6174C92.0746 33.8505 91.7573 35.2503 91.7565 36.817C91.7558 38.3836 92.0717 39.7838 92.7045 41.0174C93.3372 42.2511 94.2201 43.2348 95.353 43.9687C96.5193 44.7026 97.8192 45.0699 99.2525 45.0706ZM127.201 50.5343C124.734 50.5331 122.518 49.932 120.552 48.731C118.586 47.5301 117.037 45.896 115.904 43.8288C114.772 41.7616 114.206 39.4279 114.208 36.8279C114.209 34.2279 114.777 31.8949 115.911 29.8288C117.045 27.7627 118.596 26.1301 120.564 24.931C122.531 23.732 124.748 23.1331 127.214 23.1343C129.581 23.1355 131.731 23.5865 133.664 24.4874C135.597 25.3884 137.096 26.6391 138.162 28.2396L134.76 32.338C134.26 31.6377 133.627 31.0041 132.861 30.4371C132.094 29.87 131.278 29.4196 130.411 29.0859C129.545 28.7521 128.678 28.585 127.812 28.5846C126.345 28.5839 125.028 28.9499 123.861 29.6827C122.728 30.3821 121.827 31.365 121.16 32.6313C120.492 33.8643 120.158 35.2642 120.158 36.8309C120.157 38.3975 120.49 39.7977 121.156 41.0313C121.855 42.265 122.788 43.2488 123.954 43.9827C125.121 44.7166 126.42 45.0839 127.854 45.0846C128.72 45.085 129.554 44.9521 130.354 44.6858C131.187 44.3862 131.971 43.97 132.704 43.437C133.438 42.904 134.122 42.2377 134.755 41.438L138.153 45.5896C137.019 47.0558 135.452 48.255 133.452 49.1873C131.485 50.0864 129.401 50.5354 127.201 50.5343ZM149.504 50.5452C147.604 50.5443 145.954 50.1268 144.555 49.2928C143.155 48.4254 142.089 47.2082 141.357 45.6412C140.624 44.0409 140.258 42.1407 140.259 39.9407L140.267 23.6907L146.417 23.6937L146.41 38.6437C146.409 40.0437 146.625 41.2438 147.058 42.244C147.491 43.2109 148.124 43.9612 148.957 44.4949C149.79 45.0287 150.79 45.2958 151.957 45.2964C152.823 45.2968 153.607 45.1639 154.307 44.8975C155.04 44.5979 155.674 44.1982 156.207 43.6985C156.741 43.1654 157.158 42.5489 157.458 41.8491C157.759 41.1159 157.909 40.3326 157.91 39.4993L157.917 23.6993L164.067 23.7023L164.054 50.0523L158.054 50.0494L157.957 44.5493L159.057 43.9499C158.657 45.2163 157.973 46.3493 157.006 47.3489C156.072 48.3151 154.955 49.0979 153.655 49.6972C152.354 50.2633 150.971 50.5459 149.504 50.5452Z" fill="black"/>
<path d="M50.1624 30.043L27.5246 8.03762" stroke="black" stroke-width="7"/>
<path d="M31.2964 57.5493L4.12217 30.9597" stroke="black" stroke-width="7"/>
<path d="M3 34.6272L32.5 8.04932" stroke="black" stroke-width="7"/>
<path d="M19.8433 33.623L32.1952 22.6203" stroke="#004E98" stroke-width="7"/>
<rect x="30.2192" y="36.3735" width="3.77296" height="3.66756" fill="#004E98"/>
<path d="M23.6167 36.3735H27.3897V40.0411H23.6167V36.3735Z" fill="#004E98"/>
<path d="M47.1973 41.875L27.3892 22.6203" stroke="#004E98" stroke-width="7"/>
<path d="M26.5 57.0493L47.5002 37.0494" stroke="black" stroke-width="7"/>
<path d="M17.5522 19.8916V9.87127" stroke="black" stroke-width="7"/>
</svg>
